<svg width="45" height="45" viewBox="0 0 45 45" fill="none" xmlns="http://www.w3.org/2000/svg">
<path d="M23.5161 13.0161C23.5161 12.7466 23.4091 12.4882 23.2185 12.2976C23.028 12.1071 22.7695 12 22.5 12C22.2305 12 21.972 12.1071 21.7815 12.2976C21.5909 12.4882 21.4839 12.7466 21.4839 13.0161V21.4839H13.0161C12.7466 21.4839 12.4882 21.5909 12.2976 21.7815C12.1071 21.972 12 22.2305 12 22.5C12 22.7695 12.1071 23.028 12.2976 23.2185C12.4882 23.4091 12.7466 23.5161 13.0161 23.5161H21.4839V31.9839C21.4839 32.2534 21.5909 32.5118 21.7815 32.7024C21.972 32.8929 22.2305 33 22.5 33C22.7695 33 23.028 32.8929 23.2185 32.7024C23.4091 32.5118 23.5161 32.2534 23.5161 31.9839V23.5161H31.9839C32.2534 23.5161 32.5118 23.4091 32.7024 23.2185C32.8929 23.028 33 22.7695 33 22.5C33 22.2305 32.8929 21.972 32.7024 21.7815C32.5118 21.5909 32.2534 21.4839 31.9839 21.4839H23.5161V13.0161Z" fill="#37CC56"/>
</svg>
