<svg width="24" height="24" viewBox="0 0 24 24" fill="none" xmlns="http://www.w3.org/2000/svg">
<path d="M0 11.9981C0.000675878 14.8557 1.02057 17.6193 2.87635 19.7923C4.73214 21.9653 7.30213 23.4051 10.1244 23.8529V15.4661H7.08V11.9981H10.128V9.3581C10.0607 8.74021 10.1303 8.11508 10.3318 7.5271C10.5333 6.93913 10.8618 6.40273 11.294 5.95602C11.7261 5.50931 12.2514 5.16323 12.8323 4.94237C13.4133 4.72151 14.0358 4.63128 14.6556 4.6781C15.5556 4.6925 16.4556 4.7729 17.3436 4.9181V7.8689H15.8268C15.569 7.83514 15.3069 7.85974 15.0599 7.94088C14.8129 8.02202 14.5873 8.15764 14.3997 8.3377C14.2122 8.51777 14.0675 8.73767 13.9763 8.98118C13.8852 9.22468 13.85 9.48555 13.8732 9.7445V11.9981H17.1984L16.6668 15.4673H13.8732V23.8529C16.1383 23.4949 18.2535 22.4954 19.9682 20.9726C21.6829 19.4499 22.9254 17.4677 23.5485 15.2607C24.1716 13.0537 24.1493 10.7144 23.4842 8.5197C22.8191 6.32501 21.5391 4.36686 19.7956 2.87707C18.0522 1.38729 15.9184 0.428266 13.6468 0.113547C11.3753 -0.201171 9.0611 0.141596 6.9783 1.10127C4.8955 2.06094 3.1313 3.59732 1.89457 5.52852C0.657833 7.45971 0.000364044 9.70484 0 11.9981Z" fill="#37CC56"/>
</svg>
