<svg width="22" height="22" viewBox="0 0 22 22" fill="none" xmlns="http://www.w3.org/2000/svg">
<path d="M13.3742 7.33331L11 9.70748L8.62583 7.33331L7.33333 8.62581L9.7075 11L7.33333 13.3741L8.62583 14.6666L11 12.2925L13.3742 14.6666L14.6667 13.3741L12.2925 11L14.6667 8.62581L13.3742 7.33331ZM11 1.83331C5.93083 1.83331 1.83333 5.93081 1.83333 11C1.83333 16.0691 5.93083 20.1666 11 20.1666C16.0692 20.1666 20.1667 16.0691 20.1667 11C20.1667 5.93081 16.0692 1.83331 11 1.83331ZM11 18.3333C6.9575 18.3333 3.66666 15.0425 3.66666 11C3.66666 6.95748 6.9575 3.66665 11 3.66665C15.0425 3.66665 18.3333 6.95748 18.3333 11C18.3333 15.0425 15.0425 18.3333 11 18.3333Z" fill="#757575"/>
</svg>
