<svg width="24" height="24" viewBox="0 0 24 24" fill="none" xmlns="http://www.w3.org/2000/svg">
<path d="M10.3633 3.92146L2.25653 17.4551C2.08938 17.7446 2.00094 18.0728 2.00001 18.407C1.99907 18.7412 2.08567 19.0699 2.25119 19.3603C2.41671 19.6507 2.65538 19.8927 2.94346 20.0622C3.23153 20.2317 3.55897 20.3228 3.8932 20.3265H20.1068C20.441 20.3228 20.7685 20.2317 21.0565 20.0622C21.3446 19.8927 21.5833 19.6507 21.7488 19.3603C21.9143 19.0699 22.0009 18.7412 22 18.407C21.9991 18.0728 21.9106 17.7446 21.7435 17.4551L13.6367 3.92146C13.466 3.64017 13.2258 3.4076 12.9391 3.2462C12.6524 3.08479 12.329 3 12 3C11.671 3 11.3476 3.08479 11.0609 3.2462C10.7742 3.4076 10.534 3.64017 10.3633 3.92146V3.92146Z" stroke="#E75252" stroke-width="2" stroke-linecap="round" stroke-linejoin="round"/>
<path d="M12 8.84109V12.6696" stroke="#E75252" stroke-width="2" stroke-linecap="round" stroke-linejoin="round"/>
<path d="M12 16.498H12.01" stroke="#E75252" stroke-width="2" stroke-linecap="round" stroke-linejoin="round"/>
</svg>
