<svg width="22" height="22" viewBox="0 0 22 22" fill="none" xmlns="http://www.w3.org/2000/svg">
<path d="M5.13514 10.5405C4.50703 10.5405 4 11.0476 4 11.6757C4 12.3038 4.50703 12.8108 5.13514 12.8108C5.76324 12.8108 6.27027 12.3038 6.27027 11.6757C6.27027 11.0476 5.76324 10.5405 5.13514 10.5405ZM5.13514 6C4.50703 6 4 6.50703 4 7.13514C4 7.76324 4.50703 8.27027 5.13514 8.27027C5.76324 8.27027 6.27027 7.76324 6.27027 7.13514C6.27027 6.50703 5.76324 6 5.13514 6ZM5.13514 15.0811C4.50703 15.0811 4 15.5957 4 16.2162C4 16.8368 4.51459 17.3514 5.13514 17.3514C5.75568 17.3514 6.27027 16.8368 6.27027 16.2162C6.27027 15.5957 5.76324 15.0811 5.13514 15.0811ZM7.40541 16.973H18V15.4595H7.40541V16.973ZM7.40541 12.4324H18V10.9189H7.40541V12.4324ZM7.40541 6.37838V7.89189H18V6.37838H7.40541Z" fill="black"/>
</svg>
