<svg width="30" height="30" viewBox="0 0 30 30" fill="none" xmlns="http://www.w3.org/2000/svg">
<path d="M22.5 5H7.5C6.11929 5 5 6.11929 5 7.5V22.5C5 23.8807 6.11929 25 7.5 25H22.5C23.8807 25 25 23.8807 25 22.5V7.5C25 6.11929 23.8807 5 22.5 5Z" stroke="#757575" stroke-width="2.5" stroke-linecap="round" stroke-linejoin="round"/>
<path d="M11.25 20V10H16.25C16.913 10 17.5489 10.2634 18.0178 10.7322C18.4866 11.2011 18.75 11.837 18.75 12.5C18.75 13.163 18.4866 13.7989 18.0178 14.2678C17.5489 14.7366 16.913 15 16.25 15H11.25" stroke="#757575" stroke-width="2.5" stroke-linecap="round" stroke-linejoin="round"/>
</svg>
