<svg width="48" height="48" viewBox="0 0 48 48" fill="none" xmlns="http://www.w3.org/2000/svg">
<path d="M0 24C0 10.7452 10.7452 0 24 0C37.2548 0 48 10.7452 48 24C48 37.2548 37.2548 48 24 48C10.7452 48 0 37.2548 0 24Z" fill="#2A823C"/>
<path d="M15.6 34.4C17.5883 34.4 19.2001 32.7883 19.2001 30.8C19.2001 28.8118 17.5883 27.2001 15.6 27.2001C13.6118 27.2001 12 28.8118 12 30.8C12 32.7883 13.6118 34.4 15.6 34.4Z" stroke="white" stroke-width="2.5" stroke-linecap="round" stroke-linejoin="round"/>
<path d="M32.4003 34.4C34.3886 34.4 36.0004 32.7883 36.0004 30.8C36.0004 28.8118 34.3886 27.2001 32.4003 27.2001C30.4121 27.2001 28.8003 28.8118 28.8003 30.8C28.8003 32.7883 30.4121 34.4 32.4003 34.4Z" stroke="white" stroke-width="2.5" stroke-linecap="round" stroke-linejoin="round"/>
<path d="M24.0004 32V27.2L20.4004 23.6L26.4004 18.8L28.8005 22.4H32.4005" stroke="white" stroke-width="2.5" stroke-linecap="round" stroke-linejoin="round"/>
<path d="M30.0003 16.4C30.6631 16.4 31.2003 15.8627 31.2003 15.2C31.2003 14.5373 30.6631 14 30.0003 14C29.3376 14 28.8003 14.5373 28.8003 15.2C28.8003 15.8627 29.3376 16.4 30.0003 16.4Z" stroke="white" stroke-width="2.5" stroke-linecap="round" stroke-linejoin="round"/>
</svg>
