<svg width="30" height="30" viewBox="0 0 30 30" fill="none" xmlns="http://www.w3.org/2000/svg">
<path d="M24.3333 18.8939V9.56285C24.3333 7.04187 21.9467 5 19 5C16.0533 5 13.6667 7.04187 13.6667 9.56285V20.97C13.6667 22.2248 12.4667 23.2514 11 23.2514C9.53333 23.2514 8.33333 22.2248 8.33333 20.97V11.6389C9.88 11.1598 11 9.90506 11 8.42214C11 6.52855 9.21333 5 7 5C4.78667 5 3 6.52855 3 8.42214C3 9.90506 4.12 11.1598 5.66667 11.6389V20.97C5.66667 23.4909 8.05333 25.5328 11 25.5328C13.9467 25.5328 16.3333 23.4909 16.3333 20.97V9.56285C16.3333 8.30807 17.5333 7.28142 19 7.28142C20.4667 7.28142 21.6667 8.30807 21.6667 9.56285V18.8939C20.7787 19.163 20.0305 19.692 19.5542 20.3873C19.0779 21.0827 18.9042 21.8997 19.0637 22.694C19.2232 23.4883 19.7058 24.2088 20.426 24.7283C21.1463 25.2477 22.058 25.5327 23 25.5328C25.2133 25.5328 27 24.0043 27 22.1107C27 20.6278 25.88 19.373 24.3333 18.8939ZM7 9.56285C6.26667 9.56285 5.66667 9.04953 5.66667 8.42214C5.66667 7.79474 6.26667 7.28142 7 7.28142C7.73333 7.28142 8.33333 7.79474 8.33333 8.42214C8.33333 9.04953 7.73333 9.56285 7 9.56285ZM23 23.2514C22.2667 23.2514 21.6667 22.7381 21.6667 22.1107C21.6667 21.4833 22.2667 20.97 23 20.97C23.7333 20.97 24.3333 21.4833 24.3333 22.1107C24.3333 22.7381 23.7333 23.2514 23 23.2514Z" fill="#37CC56"/>
</svg>
