<svg width="48" height="48" viewBox="0 0 48 48" fill="none" xmlns="http://www.w3.org/2000/svg">
<path d="M0 24C0 10.7452 10.7452 0 24 0C37.2548 0 48 10.7452 48 24C48 37.2548 37.2548 48 24 48C10.7452 48 0 37.2548 0 24Z" fill="white"/>
<path d="M23.008 19.208V20.952H31.152V19.208H23.008ZM22.944 22.152V23.768H28.416V22.152H22.944ZM23.408 17.416C22.816 19.224 21.744 21 20.48 22.104C20.928 22.376 21.68 22.952 22.016 23.272C23.264 21.992 24.496 19.96 25.232 17.88L23.408 17.416ZM28.176 22.152C22.496 25.816 22.256 26.744 22.256 27.688C22.256 28.872 23.136 29.608 25.088 29.608H28.816C30.464 29.608 31.12 29.144 31.312 26.68C30.8 26.584 30.224 26.392 29.744 26.104C29.68 27.704 29.472 27.896 28.912 27.896H25.04C24.448 27.896 24.064 27.768 24.064 27.432C24.064 26.952 24.48 26.296 29.792 23.112C29.888 23.016 29.984 22.888 30.032 22.776L28.816 22.12L28.448 22.152H28.176ZM17.2 18.296C17.936 19.08 18.864 20.2 19.312 20.888L20.768 19.816C20.288 19.176 19.392 18.168 18.624 17.416L17.2 18.296ZM16.672 21.144V22.68H20.288V21.144H16.672ZM19.984 28.104L18.704 28.616C19.872 31.688 21.856 32.184 25.552 32.184C27.424 32.184 29.456 32.136 31.12 32.04C31.216 31.512 31.456 30.648 31.728 30.264C29.92 30.424 27.296 30.536 25.584 30.536C22.704 30.52 20.832 30.264 19.984 28.104ZM19.648 25.032V25.336C19.248 28.088 18.08 30.104 16.384 31.176C16.768 31.432 17.392 32.072 17.632 32.44C19.44 31.192 20.784 28.808 21.344 25.352L20.4 25L20.096 25.032H19.648ZM17.04 26.776C17.184 26.632 17.648 26.52 18.032 26.52H20.128L20.144 25.032H17.728L17.04 25.4V26.776ZM17.04 26.776C17.04 26.344 18.352 25.72 18.352 25.72C19.312 24.68 20.752 22.712 21.552 21.624L20.384 21.064L19.872 21.272V21.32C19.312 22.2 17.792 24.232 17.296 24.696C16.976 25.016 16.688 25.128 16.432 25.208C16.608 25.544 16.944 26.376 17.04 26.776Z" fill="#2A823C"/>
<path d="M24 45C12.402 45 3 35.598 3 24H-3C-3 38.9117 9.08831 51 24 51V45ZM45 24C45 35.598 35.598 45 24 45V51C38.9117 51 51 38.9117 51 24H45ZM24 3C35.598 3 45 12.402 45 24H51C51 9.08831 38.9117 -3 24 -3V3ZM24 -3C9.08831 -3 -3 9.08831 -3 24H3C3 12.402 12.402 3 24 3V-3Z" fill="#2A823C"/>
</svg>
