<svg width="48" height="48" viewBox="0 0 48 48" fill="none" xmlns="http://www.w3.org/2000/svg">
<path d="M0 24C0 10.7452 10.7452 0 24 0V0C37.2548 0 48 10.7452 48 24V24C48 37.2548 37.2548 48 24 48V48C10.7452 48 0 37.2548 0 24V24Z" fill="white"/>
<path d="M24.528 18.232V26.68C24.528 28.696 25.072 29.224 26.848 29.224C27.248 29.224 28.816 29.224 29.232 29.224C30.752 29.224 31.264 28.536 31.472 26.44C30.96 26.328 30.208 26.024 29.808 25.72C29.728 27.192 29.616 27.496 29.072 27.496C28.72 27.496 27.424 27.496 27.136 27.496C26.48 27.496 26.384 27.384 26.384 26.664V18.232H24.528ZM25.312 18.232V19.928H28.816V22.552H25.312V24.248H30.688V18.232H25.312ZM17.104 19V20.68H23.664V19H17.104ZM16.656 22.152V23.848H24.064V22.152H16.656ZM20.832 25.576V27.24H23.92V25.576H20.832ZM19.488 17.464V23.064H21.296V17.464H19.488ZM19.888 23.24V30.36H21.648V23.24H19.888ZM18.704 26.344L17.328 26.744C18.432 31.24 20.512 32.04 24.736 32.04H30.944C31.072 31.464 31.392 30.568 31.696 30.136C30.24 30.216 25.968 30.216 24.736 30.2C21.36 30.2 19.552 29.704 18.704 26.344ZM17.216 24.776C17.184 27.544 17.024 30.216 16.224 31.832C16.656 32.008 17.504 32.424 17.84 32.648C18.656 30.808 18.896 27.96 18.976 24.904L17.216 24.776Z" fill="#2A823C"/>
<path d="M24 45C12.402 45 3 35.598 3 24H-3C-3 38.9117 9.08831 51 24 51V45ZM45 24C45 35.598 35.598 45 24 45V51C38.9117 51 51 38.9117 51 24H45ZM24 3C35.598 3 45 12.402 45 24H51C51 9.08831 38.9117 -3 24 -3V3ZM24 -3C9.08831 -3 -3 9.08831 -3 24H3C3 12.402 12.402 3 24 3V-3Z" fill="#2A823C"/>
</svg>
