<svg width="34" height="34" viewBox="0 0 34 34" fill="none" xmlns="http://www.w3.org/2000/svg">
<path d="M0 17C0 7.61116 7.61116 0 17 0C26.3888 0 34 7.61116 34 17C34 26.3888 26.3888 34 17 34C7.61116 34 0 26.3888 0 17Z" fill="#EFF6ED"/>
<path d="M16.132 12.99V13.956H23.062V12.99H16.132ZM16.02 15.454V16.364H21.116V15.454H16.02ZM16.65 11.254C16.09 12.878 15.152 14.474 14.046 15.482C14.298 15.636 14.718 15.958 14.914 16.126C15.978 15.006 17.014 13.298 17.658 11.506L16.65 11.254ZM20.99 15.454C15.684 19.08 15.474 19.878 15.474 20.55C15.474 21.362 16.09 21.838 17.476 21.838H21.494C22.67 21.838 23.048 21.53 23.174 19.486C22.894 19.43 22.558 19.318 22.292 19.15C22.236 20.69 22.096 20.886 21.55 20.886H17.434C16.86 20.886 16.482 20.746 16.482 20.424C16.482 19.99 16.86 19.346 21.872 15.986C21.928 15.93 21.998 15.86 22.026 15.79L21.354 15.426L21.144 15.454H20.99ZM11.218 11.73C11.834 12.416 12.618 13.396 12.996 13.984L13.808 13.41C13.416 12.836 12.646 11.94 12.002 11.268L11.218 11.73ZM10.658 14.474V15.356H13.822V14.474H10.658ZM13.178 20.9L12.478 21.222C13.528 23.532 15.362 23.924 18.624 23.924C20.164 23.924 21.928 23.882 23.23 23.812C23.286 23.518 23.426 23.028 23.58 22.804C22.152 22.916 20.108 22.986 18.638 22.986C15.866 22.986 14.032 22.734 13.178 20.9ZM13.388 17.974V18.156C12.996 20.69 11.918 22.482 10.434 23.434C10.658 23.588 11.008 23.938 11.148 24.148C12.688 23.084 13.864 21.11 14.354 18.156L13.822 17.946L13.64 17.974H13.388ZM10.882 19.024C10.994 18.912 11.358 18.828 11.722 18.828H13.71L13.724 17.974H11.386L10.882 18.226V19.024ZM10.882 19.024C10.882 18.758 11.68 18.366 11.68 18.366C12.52 17.47 13.85 15.692 14.55 14.754L13.864 14.404L13.528 14.544V14.586C13.052 15.328 11.638 17.218 11.19 17.652C10.938 17.918 10.7 18.016 10.49 18.072C10.602 18.282 10.812 18.786 10.882 19.024Z" fill="#2A823C"/>
</svg>
