<svg width="34" height="34" viewBox="0 0 34 34" fill="none" xmlns="http://www.w3.org/2000/svg">
<path d="M0 17C0 7.61116 7.61116 0 17 0C26.3888 0 34 7.61116 34 17C34 26.3888 26.3888 34 17 34C7.61116 34 0 26.3888 0 17Z" fill="#EFF6ED"/>
<path d="M17.616 12.164V19.962C17.616 21.292 18.008 21.614 19.31 21.614C19.604 21.614 21.536 21.614 21.844 21.614C23.006 21.614 23.3 21.096 23.426 19.402C23.146 19.346 22.726 19.178 22.488 18.996C22.432 20.368 22.334 20.648 21.788 20.648C21.368 20.648 19.73 20.648 19.422 20.648C18.75 20.648 18.624 20.536 18.624 19.962V12.164H17.616ZM18.022 12.164V13.116H21.676V16.14H18.022V17.078H22.712V12.164H18.022ZM11.036 12.822V13.774H16.65V12.822H11.036ZM10.672 15.538V16.49H17V15.538H10.672ZM14.088 18.562V19.5H16.874V18.562H14.088ZM13.374 11.268V16.028H14.368V11.268H13.374ZM13.612 16.182V22.608H14.592V16.182H13.612ZM12.17 19.234L11.4 19.486C12.31 23.014 13.976 23.77 17.77 23.77H23.146C23.216 23.462 23.412 22.972 23.58 22.734C22.712 22.762 18.428 22.762 17.742 22.762C14.494 22.762 12.926 22.16 12.17 19.234ZM11.386 17.596C11.33 20.088 11.176 22.342 10.364 23.742C10.602 23.854 11.064 24.106 11.246 24.246C12.086 22.678 12.282 20.354 12.366 17.666L11.386 17.596Z" fill="#2A823C"/>
</svg>
