<svg width="22" height="22" viewBox="0 0 22 22" fill="none" xmlns="http://www.w3.org/2000/svg">
<path d="M10.9987 6.99875C11.2324 6.99829 11.4588 7.07967 11.6387 7.22875L17.6387 12.2287C17.843 12.3985 17.9714 12.6424 17.9958 12.9068C18.0201 13.1713 17.9385 13.4345 17.7687 13.6387C17.599 13.843 17.3551 13.9714 17.0907 13.9958C16.8262 14.0201 16.563 13.9385 16.3587 13.7687L10.9987 9.28875L5.63875 13.6087C5.53646 13.6918 5.41876 13.7538 5.29242 13.7913C5.16609 13.8287 5.03359 13.8408 4.90257 13.8269C4.77154 13.8129 4.64456 13.7732 4.52892 13.7101C4.41328 13.6469 4.31127 13.5615 4.22875 13.4587C4.13717 13.3559 4.06781 13.2353 4.02502 13.1044C3.98222 12.9736 3.96692 12.8353 3.98006 12.6982C3.99321 12.5611 4.03451 12.4283 4.1014 12.3079C4.16828 12.1875 4.2593 12.0823 4.36875 11.9987L10.3687 7.16875C10.5538 7.04323 10.7756 6.98338 10.9987 6.99875Z" fill="#37CC56"/>
</svg>
