<svg width="100" height="40" viewBox="0 0 100 40" fill="none" xmlns="http://www.w3.org/2000/svg">
<path fill-rule="evenodd" clip-rule="evenodd" d="M19.6596 10.4287C18.6376 10.4287 17.8096 11.2575 17.8096 12.2799V28.6879C17.8096 29.7103 18.638 30.5391 19.6596 30.5391C20.6812 30.5391 21.5096 29.7103 21.5096 28.6879V12.2803C21.5096 11.2579 20.6812 10.4287 19.6596 10.4287Z" fill="#424242"/>
<path fill-rule="evenodd" clip-rule="evenodd" d="M13.7473 22.1688L11.7509 21.588L14.6369 11.6656C14.8505 10.932 14.2281 10.106 13.2469 9.82042C12.2657 9.53522 11.2973 9.89842 11.0841 10.632L7.79288 21.9468C7.75088 22.0336 7.71528 22.1248 7.68728 22.2204C7.64368 22.3708 7.62128 22.522 7.61808 22.6712C7.61768 22.6828 7.61768 22.6948 7.61768 22.7064C7.61688 23.462 8.11088 24.1584 8.87248 24.38L12.7741 25.5148C13.6977 25.7832 14.6641 25.252 14.9329 24.328C15.2013 23.4044 14.6709 22.4376 13.7473 22.1688Z" fill="#424242"/>
<path fill-rule="evenodd" clip-rule="evenodd" d="M31.9824 10.3248C31.9828 10.3132 31.9828 10.3012 31.9828 10.2896C31.9836 9.5352 31.492 8.8396 30.734 8.6184L26.8504 7.48519C25.9312 7.21679 24.9692 7.74759 24.7016 8.6704C24.434 9.5932 24.9624 10.5588 25.8816 10.8268L27.8688 11.4068L24.996 21.3156C24.7836 22.0484 25.4032 22.8732 26.3796 23.1584C27.356 23.4436 28.32 23.0804 28.5324 22.348L31.8084 11.0484C31.85 10.9616 31.8856 10.8708 31.9132 10.7752C31.9572 10.6248 31.9792 10.474 31.9824 10.3248Z" fill="#424242"/>
<path d="M50.172 29.5168C49.8357 29.555 49.4951 29.5197 49.1737 29.4135C49.2867 28.2687 49.3384 27.1187 49.3286 25.9684V22.5234L49.0361 22.6785L48.4336 22.9368C48.2704 22.6465 48.0923 22.3648 47.9001 22.0928H45.5421V25.3656L48.0378 24.7627L48.2271 26.4852C45.5651 27.1972 42.9317 27.8517 40.327 28.4489L40 26.5886L40.981 26.4163V22.9713C40.981 21.6967 40.9294 20.5081 40.8261 19.4057C41.273 19.3713 41.7218 19.3713 42.1686 19.4057C42.7366 19.4057 43.0292 19.5435 43.0292 19.6641C42.695 20.1756 42.5212 20.7755 42.53 21.3866V26.1579L43.8381 25.8479V17.7866H41.0327V14.6172C41.0327 13.3942 41.0327 12.309 40.895 11.3788C40.895 11.2755 40.895 11.2238 41.0327 11.2238C42.1479 11.3344 43.2682 11.3862 44.3889 11.3788H46.1101C46.6781 11.3788 47.2288 11.3788 47.8312 11.3788C47.9173 11.3788 47.9517 11.3788 47.9517 11.3788C47.8663 12.2547 47.8261 13.1343 47.8312 14.0143V16.6669C48.6353 15.8474 49.3296 14.9267 49.8966 13.9282C50.5041 12.8389 50.9835 11.6828 51.3252 10.4832C51.7828 10.593 52.2315 10.737 52.6677 10.9138C53.098 11.0688 53.2873 11.2066 53.2701 11.2755C53.2529 11.3444 53.2701 11.3788 53.1152 11.4305C53.0525 11.4581 52.9976 11.501 52.9556 11.5551C52.9135 11.6092 52.8855 11.6729 52.8742 11.7405C52.7709 12.0161 52.6504 12.2745 52.5472 12.5157H55.9895H56.2993L57.5041 13.0324C56.9226 15.0465 55.9389 16.9217 54.6126 18.5445C55.8915 19.7329 57.3956 20.6525 59.036 21.2488C58.5505 21.706 58.1536 22.2491 57.8655 22.8507L57.4525 22.6785V26.1235C57.4456 27.2393 57.4973 28.3547 57.6074 29.4651C57.2742 29.5716 56.9223 29.6068 56.5747 29.5685C55.9723 29.5685 55.6453 29.5685 55.6453 29.4651V29.3445C55.6453 29.2412 55.6453 29.1723 55.6453 29.1378V28.8106H51.0326V29.1723C51.0326 29.1723 51.0326 29.3101 51.0326 29.3962V29.534C51.0326 29.534 50.74 29.5168 50.172 29.5168ZM42.685 16.1502H45.9724V12.9808H42.685V16.1502ZM47.8485 21.3177C49.4434 20.6204 50.8918 19.6267 52.1169 18.3894C51.5148 17.6492 50.9846 16.8533 50.5335 16.0124C50.061 16.699 49.5312 17.3444 48.95 17.9416C48.5629 17.5225 48.1364 17.1418 47.6763 16.8047V17.7349H45.4904V20.4737H47.8485V21.3177ZM50.4818 21.9034H56.0583C55.0398 21.2889 54.103 20.5481 53.2701 19.6986C52.4507 20.5687 51.5256 21.3325 50.5162 21.9722L50.4818 21.9034ZM50.9809 26.9675H55.5076V23.5225H51.0326L50.9809 26.9675ZM53.2185 17.1148C53.9345 16.1984 54.5142 15.183 54.9396 14.1004H51.5833L51.394 14.4794C51.9068 15.454 52.5369 16.3622 53.2701 17.1837L53.2185 17.1148Z" fill="#424242"/>
<path d="M69.294 29.5859C68.8258 29.1233 68.2992 28.7237 67.7278 28.3973C69.6466 26.9224 71.1087 24.9337 71.9446 22.6614H69.6555C68.9119 23.9816 67.9976 25.1979 66.9361 26.2786C65.932 27.3152 64.8181 28.2393 63.6142 29.0346C63.1957 28.5249 62.7224 28.0628 62.2029 27.6567C64.3794 26.4762 66.2166 24.7562 67.5385 22.6614H65.1977C64.2185 23.6417 63.1463 24.5243 61.9964 25.2968C61.5848 24.7737 61.0975 24.315 60.5505 23.9361C62.5515 22.8479 64.2722 21.3087 65.5763 19.4403H63.5454V15.4269C63.5608 14.0927 63.5033 12.7586 63.3733 11.4307C63.3733 11.3273 63.3733 11.2756 63.5454 11.2756C64.6204 11.3861 65.7006 11.4378 66.7812 11.4307H73.3215C74.4079 11.4382 75.4938 11.3865 76.5745 11.2756C76.5745 11.2756 76.6606 11.2756 76.6606 11.4307C76.6606 12.0852 76.5745 12.757 76.5745 13.4288V15.4269C76.5588 16.7668 76.6162 18.1066 76.7466 19.4403C76.7466 19.5609 76.7466 19.6298 76.5745 19.6298C75.1102 19.4885 73.6394 19.4253 72.1683 19.4403H67.7794C67.4352 19.9743 67.0738 20.4911 66.6779 20.9906H78.0547C78.0547 21.249 78.0547 21.5245 78.0547 21.7829C77.9214 23.4466 77.703 25.1024 77.4006 26.7437C77.3185 27.4922 77.0394 28.2055 76.5917 28.8107C76.1974 29.2041 75.668 29.432 75.1115 29.448C74.2811 29.5183 73.4463 29.5183 72.6158 29.448C72.5896 28.8692 72.4179 28.3065 72.1167 27.8117C72.8372 27.8856 73.5611 27.9201 74.2854 27.915C74.4158 27.9251 74.547 27.909 74.6712 27.8676C74.7953 27.8261 74.9099 27.7603 75.0083 27.6739C75.4386 27.2777 75.8 25.6241 76.0926 22.6614H73.9583C73.4544 24.0499 72.7779 25.3694 71.9446 26.5887C71.1836 27.6899 70.2938 28.6961 69.294 29.5859ZM65.4558 14.6173H74.7329V12.8948H65.4558V14.6173ZM65.4558 17.8384H74.7329V16.1159H65.4558V17.8384Z" fill="#424242"/>
<path d="M82.3232 28.2421L81.2905 27.7943C81.6975 26.312 81.9683 24.7957 82.0995 23.2641C82.9371 23.5856 83.3502 23.844 83.3387 24.0392C83.3122 24.1242 83.2648 24.2012 83.201 24.2632C83.1278 24.3183 83.067 24.3882 83.0226 24.4683C82.9781 24.5484 82.9509 24.6369 82.9428 24.7282C82.9428 25.0383 82.9428 25.4517 82.7879 25.9684C82.6853 26.7361 82.53 27.4958 82.3232 28.2421ZM85.5246 29.3618C85.514 28.8247 85.3722 28.2984 85.1115 27.8288C85.6193 27.8948 86.1313 27.9235 86.6433 27.9149C86.7457 27.9269 86.8495 27.9109 86.9435 27.8684C87.0375 27.8259 87.1182 27.7586 87.1768 27.6737C87.4697 26.9929 87.6276 26.2616 87.6416 25.5206L87.0219 25.7962C86.7893 24.8711 86.4665 23.971 86.0581 23.1091L86.7982 22.8163C87.1581 23.5187 87.4576 24.2505 87.6932 25.0038C87.6932 24.0909 87.8309 23.178 87.8654 22.2478H85.0254C84.0883 22.2385 83.1516 22.2846 82.22 22.3856C82.1339 22.3856 82.0995 22.3856 82.0995 22.2478C82.2248 21.4968 82.2652 20.7341 82.22 19.9741V14.0487C82.2339 13.1399 82.1937 12.2311 82.0995 11.3271C82.0995 11.3271 82.0995 11.3271 82.22 11.3271C82.7707 11.3271 83.3387 11.3271 83.9411 11.3271H85.6623C86.6261 11.3271 87.7793 11.3271 89.1046 11.1721C89.1435 11.4694 89.1435 11.7705 89.1046 12.0678C89.1505 12.3473 89.1505 12.6324 89.1046 12.9119C88.7148 12.8888 88.3239 12.8888 87.9342 12.9119H86.7466V14.5138H87.7449H88.7087C88.7087 14.5138 88.7087 14.7894 88.7087 15.3061C88.7087 15.8229 88.7087 16.0813 88.7087 16.1157C88.3877 16.0972 88.0659 16.0972 87.7449 16.1157H86.7466V17.8382H87.7449H88.7087C88.7087 17.8382 88.7087 18.1138 88.7087 18.6134C88.7087 19.1129 88.7087 19.4057 88.7087 19.4229H87.7449H86.7466V21.0593H89.3627V21.7483C89.2595 24.2287 89.139 25.9685 89.0185 26.9158C88.9912 27.6417 88.7905 28.3505 88.4333 28.9828C88.3088 29.167 88.1425 29.3192 87.9481 29.4269C87.7537 29.5347 87.5367 29.595 87.3146 29.6029C86.7116 29.5802 86.1121 29.4994 85.5246 29.3618ZM83.8034 27.3809C83.8456 26.773 83.8456 26.1629 83.8034 25.555C83.7346 24.7627 83.6657 24.1081 83.5969 23.5914L84.423 23.488C84.632 24.7341 84.7241 25.997 84.6984 27.2603L83.8034 27.3809ZM83.8034 14.4449H85.5246V12.8946H83.8034V14.4449ZM83.8034 17.5798H85.5246V15.8573H83.8034V17.5798ZM83.8034 20.732H85.5246V19.0957H83.8034V20.732ZM85.5246 26.7436C85.4972 26.2619 85.4281 25.7835 85.318 25.3139C85.318 25.3139 85.318 25.1761 85.318 25.1244C85.1574 24.4469 85.0197 23.8727 84.905 23.4019L85.7139 23.2469C86.0858 24.3088 86.3172 25.4149 86.4024 26.5369L85.5246 26.7436ZM95.077 29.4651C94.957 28.853 94.7234 28.2687 94.3885 27.7426H96.6777C96.9358 27.7426 97.0735 27.6048 97.0735 27.3981V20.2669H93.3214C92.151 20.2669 90.8946 20.2669 89.5865 20.422C89.5377 20.0965 89.5377 19.7656 89.5865 19.4401C89.5345 19.1207 89.5345 18.7949 89.5865 18.4755C90.449 18.5771 91.317 18.6231 92.1854 18.6134H97.3489C98.2267 18.6134 99.0701 18.6133 99.9651 18.4755C100.006 18.7842 100.006 19.097 99.9651 19.4057C100.012 19.7024 100.012 20.0046 99.9651 20.3014C99.7647 20.2838 99.5631 20.2838 99.3626 20.3014H98.7086V27.467C98.7252 27.8296 98.6726 28.192 98.5537 28.5349C98.4896 28.6746 98.3967 28.799 98.2809 28.8999C98.1652 29.0009 98.0294 29.0761 97.8824 29.1206C96.9463 29.4045 95.9675 29.5211 94.9909 29.4651H95.077ZM90.7224 18.5617C90.5196 18.0335 90.2022 17.557 89.793 17.1665C90.7586 16.9581 91.6647 16.5342 92.4436 15.9262C93.0503 15.4351 93.4993 14.7762 93.7344 14.0315H92.0133C91.6002 14.0315 91.015 14.0315 90.2921 14.0315C90.2392 13.7411 90.2392 13.4434 90.2921 13.153C90.2359 12.8629 90.2359 12.5647 90.2921 12.2745C90.9117 12.2745 91.5658 12.2745 92.2199 12.2745H94.1647C94.2508 11.5511 94.3025 10.9309 94.3197 10.397H96.0408C96.0408 11.2582 95.9375 11.8784 95.9031 12.2745H97.8136C98.2611 12.2745 98.8979 12.2745 99.7241 12.2745C99.7635 12.5603 99.7635 12.8501 99.7241 13.1358C99.7655 13.4156 99.7655 13.7 99.7241 13.9798H98.6914H95.6105V14.2382C95.6029 14.3241 95.6029 14.4106 95.6105 14.4965C97.0656 15.2964 98.4788 16.1703 99.8446 17.1148L98.657 18.4067C97.478 17.4854 96.2421 16.6397 94.9565 15.8746C93.9206 17.2987 92.3709 18.2626 90.6364 18.5617H90.7224ZM91.583 27.5876C91.0839 27.5876 90.8257 27.5876 90.7913 27.5876C90.8235 27.0886 90.8235 26.588 90.7913 26.089V23.023C90.8234 22.5182 90.8234 22.0119 90.7913 21.5071V21.4038C91.5922 21.4792 92.3964 21.5137 93.2009 21.5071H95.6449V23.9186C95.6387 24.7122 95.6732 25.5056 95.7482 26.2957C95.7482 26.2957 95.7482 26.2957 95.6449 26.2957C95.0942 26.2957 94.5262 26.2957 93.9238 26.2957H92.2026V26.9503C92.2026 27.1914 92.2026 27.3981 92.2026 27.5876C92.2026 27.7771 91.9961 27.5876 91.497 27.5876H91.583ZM92.3059 24.7971H94.268V22.8335H92.3059V24.7971Z" fill="#424242"/>
</svg>
