<svg width="51" height="34" viewBox="0 0 51 34" fill="none" xmlns="http://www.w3.org/2000/svg">
<path fill-rule="evenodd" clip-rule="evenodd" d="M0 16.8941C0 16.4111 0.191888 15.9478 0.53345 15.6062C0.875012 15.2647 1.33827 15.0728 1.82131 15.0728H44.7788L33.3154 3.6131C32.9734 3.27111 32.7813 2.80727 32.7813 2.32361C32.7813 1.83996 32.9734 1.37612 33.3154 1.03412C33.6574 0.69213 34.1213 0.5 34.6049 0.5C35.0886 0.5 35.5524 0.69213 35.8944 1.03412L50.4649 15.6046C50.6345 15.7738 50.7691 15.9748 50.8609 16.1961C50.9527 16.4173 51 16.6545 51 16.8941C51 17.1337 50.9527 17.3709 50.8609 17.5922C50.7691 17.8134 50.6345 18.0144 50.4649 18.1836L35.8944 32.7541C35.5524 33.0961 35.0886 33.2882 34.6049 33.2882C34.1213 33.2882 33.6574 33.0961 33.3154 32.7541C32.9734 32.4121 32.7813 31.9483 32.7813 31.4646C32.7813 30.981 32.9734 30.5171 33.3154 30.1751L44.7788 18.7154H1.82131C1.33827 18.7154 0.875012 18.5235 0.53345 18.182C0.191888 17.8404 0 17.3772 0 16.8941Z" fill="black"/>
</svg>
