<svg width="40" height="40" viewBox="0 0 40 40" fill="none" xmlns="http://www.w3.org/2000/svg">
<path fill-rule="evenodd" clip-rule="evenodd" d="M19.6596 10.4288C18.6376 10.4288 17.8096 11.2576 17.8096 12.28V28.688C17.8096 29.7104 18.638 30.5392 19.6596 30.5392C20.6812 30.5392 21.5096 29.7104 21.5096 28.688V12.2804C21.5096 11.258 20.6812 10.4288 19.6596 10.4288Z" fill="#000"/>
<path fill-rule="evenodd" clip-rule="evenodd" d="M13.7472 22.1688L11.7508 21.588L14.6368 11.6656C14.8504 10.932 14.228 10.106 13.2468 9.82042C12.2656 9.53522 11.2972 9.89842 11.084 10.632L7.79282 21.9468C7.75082 22.0336 7.71522 22.1248 7.68722 22.2204C7.64362 22.3708 7.62122 22.522 7.61802 22.6712C7.61762 22.6828 7.61762 22.6948 7.61762 22.7064C7.61682 23.462 8.11081 24.1584 8.87241 24.38L12.774 25.5148C13.6976 25.7832 14.664 25.252 14.9328 24.328C15.2012 23.4044 14.6708 22.4376 13.7472 22.1688Z" fill="#000"/>
<path fill-rule="evenodd" clip-rule="evenodd" d="M31.9824 10.3248C31.9828 10.3132 31.9828 10.3012 31.9828 10.2896C31.9836 9.5352 31.492 8.8396 30.734 8.6184L26.8504 7.48519C25.9312 7.21679 24.9692 7.74759 24.7016 8.6704C24.434 9.5932 24.9624 10.5588 25.8816 10.8268L27.8688 11.4068L24.996 21.3156C24.7836 22.0484 25.4032 22.8732 26.3796 23.1584C27.356 23.4436 28.32 23.0804 28.5324 22.348L31.8084 11.0484C31.85 10.9616 31.8856 10.8708 31.9132 10.7752C31.9572 10.6248 31.9792 10.474 31.9824 10.3248Z" fill="#000"/>
</svg>
