<svg width="24" height="24" viewBox="0 0 24 24" fill="none" xmlns="http://www.w3.org/2000/svg">
<path d="M14.1145 11.9987L20.5592 5.56902C20.8414 5.2868 21 4.90402 21 4.5049C21 4.10577 20.8414 3.723 20.5592 3.44077C20.277 3.15855 19.8942 3 19.4951 3C19.096 3 18.7132 3.15855 18.431 3.44077L12.0013 9.88546L5.57158 3.44077C5.28936 3.15855 4.90658 3 4.50745 3C4.10833 3 3.72556 3.15855 3.44333 3.44077C3.16111 3.723 3.00256 4.10577 3.00256 4.5049C3.00256 4.90402 3.16111 5.2868 3.44333 5.56902L9.88802 11.9987L3.44333 18.4284C3.30286 18.5678 3.19136 18.7335 3.11527 18.9162C3.03918 19.0988 3 19.2947 3 19.4925C3 19.6904 3.03918 19.8863 3.11527 20.0689C3.19136 20.2516 3.30286 20.4173 3.44333 20.5567C3.58266 20.6971 3.74843 20.8086 3.93106 20.8847C4.1137 20.9608 4.3096 21 4.50745 21C4.70531 21 4.90121 20.9608 5.08385 20.8847C5.26648 20.8086 5.43225 20.6971 5.57158 20.5567L12.0013 14.112L18.431 20.5567C18.5703 20.6971 18.7361 20.8086 18.9187 20.8847C19.1013 20.9608 19.2972 21 19.4951 21C19.693 21 19.8889 20.9608 20.0715 20.8847C20.2541 20.8086 20.4199 20.6971 20.5592 20.5567C20.6997 20.4173 20.8112 20.2516 20.8873 20.0689C20.9634 19.8863 21.0026 19.6904 21.0026 19.4925C21.0026 19.2947 20.9634 19.0988 20.8873 18.9162C20.8112 18.7335 20.6997 18.5678 20.5592 18.4284L14.1145 11.9987Z" fill="black" fill-opacity="0.87"/>
</svg>
