<svg width="24" height="24" viewBox="0 0 24 24" fill="none" xmlns="http://www.w3.org/2000/svg">
<path d="M19.4996 5.46975L19.4988 5.46897C19.0304 5.00975 18.478 4.64481 17.8719 4.39401L17.8706 4.39347C17.2416 4.13219 16.5669 3.99845 15.8858 4.00001L15.8835 4.00002C14.9251 4.00002 13.9919 4.26236 13.1817 4.75658L13.1817 4.7566C12.9879 4.87485 12.8044 5.00426 12.6311 5.14487L12.0011 5.65582L11.3712 5.14487C11.1979 5.00426 11.0144 4.87485 10.8206 4.7566L10.8206 4.75658C10.0104 4.26236 9.07718 4.00002 8.11876 4.00002C7.42681 4.00002 6.76093 4.13211 6.13172 4.39347L6.13064 4.39392C5.52201 4.6459 4.97448 5.00765 4.50317 5.46927L4.5018 5.4706L4.5018 5.4706C4.03521 5.92586 3.66247 6.46824 3.40472 7.06702L19.4996 5.46975ZM19.4996 5.46975C19.966 5.92592 20.339 6.46862 20.5978 7.0675C20.8659 7.69063 21.0019 8.34913 21 9.02797V9.0308C21 9.6648 20.8705 10.3472 20.596 11.0651L20.5951 11.0673M19.4996 5.46975L20.5951 11.0673M7.36406 16.3039L7.36417 16.304C8.40372 17.264 9.44213 18.079 10.2335 18.6616C10.6284 18.9523 10.9598 19.1837 11.1966 19.3449C11.3149 19.4255 11.4093 19.4883 11.4757 19.532C11.5343 19.5705 11.5665 19.591 11.5743 19.596C11.5759 19.597 11.5765 19.5974 11.5761 19.5971L11.584 19.602L11.5918 19.607L12 19.8688L12.4082 19.607L12.4083 19.6069C12.4788 19.5617 14.5479 18.23 16.6359 16.3039H7.36406ZM7.36406 16.3039C6.10893 15.1452 5.1215 14.0232 4.41664 12.9724L7.36406 16.3039ZM20.5951 11.0673C20.3678 11.666 20.0291 12.307 19.5834 12.9723L20.5951 11.0673ZM3 9.0308C3 8.3499 3.1365 7.69032 3.40469 7.0671L3.4038 11.0646C3.12938 10.3469 3 9.66466 3 9.0308ZM4.41656 12.9723C3.97217 12.3089 3.63463 11.667 3.40399 11.0651L4.41656 12.9723ZM19.5833 12.9724C18.8785 14.0231 17.8912 15.145 16.6362 16.3036L19.5833 12.9724Z" stroke="#DB5D5D" stroke-width="2"/>
</svg>
