<svg width="24" height="24" viewBox="0 0 24 24" fill="none" xmlns="http://www.w3.org/2000/svg">
<path d="M21.5161 6.67173C21.2058 5.95322 20.7584 5.30211 20.1988 4.75485C19.6389 4.20596 18.9787 3.76976 18.2542 3.46998C17.5029 3.15789 16.6971 2.99814 15.8835 3.00002C14.7422 3.00002 13.6286 3.31255 12.6609 3.9029C12.4294 4.04412 12.2095 4.19923 12.0011 4.36823C11.7928 4.19923 11.5729 4.04412 11.3413 3.9029C10.3736 3.31255 9.26009 3.00002 8.11876 3.00002C7.2969 3.00002 6.50052 3.15744 5.74811 3.46998C5.02118 3.77094 4.36601 4.20386 3.80345 4.75485C3.24319 5.30149 2.79564 5.95275 2.48617 6.67173C2.16437 7.4195 2 8.21358 2 9.0308C2 9.80172 2.15743 10.6051 2.46996 11.4223C2.73157 12.1052 3.10661 12.8136 3.58583 13.529C4.34518 14.6611 5.38928 15.8418 6.68572 17.0387C8.83412 19.0227 10.9617 20.3932 11.052 20.4488L11.6006 20.8007C11.8437 20.9558 12.1563 20.9558 12.3993 20.8007L12.948 20.4488C13.0383 20.3909 15.1635 19.0227 17.3143 17.0387C18.6107 15.8418 19.6548 14.6611 20.4141 13.529C20.8934 12.8136 21.2707 12.1052 21.53 11.4223C21.8426 10.6051 22 9.80172 22 9.0308C22.0023 8.21358 21.8379 7.4195 21.5161 6.67173Z" fill="#DB5D5D"/>
</svg>
