<svg width="22" height="22" viewBox="0 0 22 22" fill="currentColor" xmlns="http://www.w3.org/2000/svg">
<path d="M11.0013 14.0013C10.7676 14.0017 10.5412 13.9203 10.3613 13.7713L4.36125 8.77125C4.15704 8.60151 4.02861 8.3576 4.00423 8.09318C3.97985 7.82875 4.06151 7.56547 4.23125 7.36125C4.40099 7.15704 4.6449 7.02861 4.90933 7.00423C5.17375 6.97985 5.43704 7.06151 5.64125 7.23125L11.0013 11.7113L16.3613 7.39125C16.4635 7.30819 16.5812 7.24615 16.7076 7.20872C16.8339 7.17129 16.9664 7.1592 17.0974 7.17314C17.2285 7.18708 17.3554 7.22677 17.4711 7.28995C17.5867 7.35312 17.6887 7.43853 17.7713 7.54125C17.8628 7.64407 17.9322 7.7647 17.975 7.89557C18.0178 8.02645 18.0331 8.16475 18.0199 8.30181C18.0068 8.43887 17.9655 8.57175 17.8986 8.6921C17.8317 8.81246 17.7407 8.91771 17.6313 9.00125L11.6313 13.8313C11.4462 13.9568 11.2244 14.0166 11.0013 14.0013Z"/>
</svg>
