<svg width="24" height="24" viewBox="0 0 24 24" fill="none" xmlns="http://www.w3.org/2000/svg">
<path d="M0 12.0716C0.000675878 14.9292 1.02057 17.6928 2.87635 19.8658C4.73214 22.0387 7.30213 23.4785 10.1244 23.9264V15.5396H7.08V12.0716H10.128V9.43159C10.0607 8.81369 10.1303 8.18856 10.3318 7.60059C10.5333 7.01261 10.8618 6.47622 11.294 6.02951C11.7261 5.58279 12.2514 5.23672 12.8323 5.01586C13.4133 4.795 14.0358 4.70477 14.6556 4.75159C15.5556 4.76599 16.4556 4.84639 17.3436 4.99159V7.94239H15.8268C15.569 7.90862 15.3069 7.93322 15.0599 8.01437C14.8129 8.09551 14.5873 8.23112 14.3997 8.41119C14.2122 8.59125 14.0675 8.81116 13.9763 9.05466C13.8852 9.29816 13.85 9.55903 13.8732 9.81799V12.0716H17.1984L16.6668 15.5408H13.8732V23.9264C16.1383 23.5684 18.2535 22.5689 19.9682 21.0461C21.6829 19.5234 22.9254 17.5411 23.5485 15.3342C24.1716 13.1272 24.1493 10.7879 23.4842 8.59319C22.8191 6.3985 21.5391 4.44035 19.7956 2.95056C18.0522 1.46078 15.9184 0.501752 13.6468 0.187034C11.3753 -0.127685 9.0611 0.215082 6.9783 1.17475C4.8955 2.13442 3.1313 3.67081 1.89457 5.602C0.657833 7.5332 0.000364044 9.77833 0 12.0716Z" fill="white"/>
</svg>
