<svg width="24" height="24" viewBox="0 0 24 24" fill="none" xmlns="http://www.w3.org/2000/svg">
<path d="M12 0.566162C18.6165 0.566162 24 4.93416 24 10.3042C24 12.4537 23.1675 14.3887 21.4275 16.2952C18.9105 19.1932 13.281 22.7227 12 23.2627C10.755 23.7877 10.899 22.9672 10.956 22.6432L10.9605 22.6162L11.1315 21.5887C11.172 21.2827 11.214 20.8072 11.0925 20.5042C10.9575 20.1697 10.4265 19.9957 10.0365 19.9117C4.269 19.1512 0 15.1177 0 10.3042C0 4.93416 5.385 0.566162 12 0.566162ZM7.533 12.0952H5.2455V7.94316C5.2455 7.88136 5.22105 7.82207 5.17749 7.77823C5.13393 7.73439 5.0748 7.70956 5.013 7.70916H4.17C4.13927 7.70916 4.10884 7.71521 4.08045 7.72697C4.05206 7.73873 4.02627 7.75597 4.00454 7.7777C3.98281 7.79943 3.96557 7.82522 3.95381 7.85361C3.94205 7.882 3.936 7.91243 3.936 7.94316V13.1722C3.936 13.2337 3.9615 13.2922 4.002 13.3327V13.3342L4.005 13.3372L4.008 13.3402C4.0515 13.382 4.10965 13.4052 4.17 13.4047H7.533C7.662 13.4047 7.7655 13.2997 7.7655 13.1707V12.3307C7.7657 12.2999 7.75984 12.2695 7.74826 12.241C7.73669 12.2125 7.71961 12.1866 7.69802 12.1648C7.67644 12.1429 7.65075 12.1255 7.62243 12.1135C7.59412 12.1016 7.56373 12.0954 7.533 12.0952ZM8.7195 7.70916C8.65744 7.70916 8.59792 7.73382 8.55404 7.7777C8.51015 7.82158 8.4855 7.8811 8.4855 7.94316V13.1722C8.4855 13.3012 8.5905 13.4047 8.7195 13.4047H9.5625C9.6915 13.4047 9.795 13.2997 9.795 13.1722V7.94316C9.795 7.88136 9.77055 7.82207 9.72699 7.77823C9.68343 7.73439 9.6243 7.70956 9.5625 7.70916H8.7195ZM14.514 7.70916C14.4519 7.70916 14.3924 7.73382 14.3485 7.7777C14.3047 7.82158 14.28 7.8811 14.28 7.94316V11.0482L11.8845 7.81416C11.8784 7.80629 11.8719 7.79878 11.865 7.79166V7.79016C11.8603 7.78491 11.8553 7.7799 11.85 7.77516L11.8455 7.77066C11.8404 7.76574 11.8348 7.76123 11.829 7.75716H11.8275L11.82 7.75116L11.8155 7.74816C11.8132 7.74641 11.8106 7.74491 11.808 7.74366L11.796 7.73616H11.793L11.7885 7.73316L11.7735 7.72716L11.7675 7.72416C11.7626 7.72238 11.7576 7.72088 11.7525 7.71966H11.7495L11.745 7.71816L11.7315 7.71516H11.7225L11.718 7.71366H11.712L11.709 7.71216H10.848C10.7862 7.71216 10.7269 7.73661 10.6831 7.78017C10.6392 7.82373 10.6144 7.88286 10.614 7.94466V13.1737C10.614 13.3027 10.719 13.4062 10.848 13.4062H11.688C11.8185 13.4062 11.9235 13.3012 11.9235 13.1737V10.0687L14.3235 13.3087C14.3395 13.331 14.3593 13.3503 14.382 13.3657L14.3835 13.3672L14.3985 13.3762L14.4045 13.3792C14.4084 13.3814 14.4124 13.3834 14.4165 13.3852L14.427 13.3897L14.4345 13.3927C14.4395 13.3943 14.4445 13.3958 14.4495 13.3972H14.454C14.4735 13.4028 14.4937 13.4058 14.514 13.4062H15.354C15.4845 13.4062 15.5895 13.3012 15.5895 13.1737V7.94316C15.5895 7.8811 15.5648 7.82158 15.521 7.7777C15.4771 7.73382 15.4176 7.70916 15.3555 7.70916H14.514ZM20.2365 8.78466V7.94466C20.2367 7.91393 20.2308 7.88347 20.2193 7.855C20.2077 7.82653 20.1906 7.80063 20.169 7.77876C20.1474 7.75689 20.1217 7.73949 20.0934 7.72755C20.0651 7.71561 20.0347 7.70936 20.004 7.70916H16.641C16.5805 7.70923 16.5223 7.73291 16.479 7.77516H16.4775L16.476 7.77816L16.473 7.78266C16.4311 7.82564 16.4075 7.88315 16.407 7.94316V13.1722C16.407 13.2337 16.4325 13.2922 16.473 13.3327L16.476 13.3372L16.479 13.3402C16.5226 13.3819 16.5807 13.405 16.641 13.4047H20.004C20.133 13.4047 20.2365 13.2997 20.2365 13.1707V12.3307C20.2367 12.2999 20.2308 12.2695 20.2193 12.241C20.2077 12.2125 20.1906 12.1866 20.169 12.1648C20.1474 12.1429 20.1217 12.1255 20.0934 12.1135C20.0651 12.1016 20.0347 12.0954 20.004 12.0952H17.715V11.2117H20.0025C20.1315 11.2117 20.235 11.1067 20.235 10.9777V10.1377C20.2352 10.1069 20.2293 10.0765 20.2178 10.048C20.2062 10.0195 20.1891 9.99363 20.1675 9.97176C20.1459 9.94989 20.1202 9.93249 20.0919 9.92055C20.0636 9.90861 20.0332 9.90236 20.0025 9.90216H17.715V9.01866H20.0025C20.1315 9.01866 20.235 8.91366 20.235 8.78466H20.2365Z" fill="white"/>
</svg>
