<svg width="48" height="48" viewBox="0 0 48 48" fill="none" xmlns="http://www.w3.org/2000/svg">
<path d="M0 24C0 10.7452 10.7452 0 24 0C37.2548 0 48 10.7452 48 24C48 37.2548 37.2548 48 24 48C10.7452 48 0 37.2548 0 24Z" fill="#2A823C"/>
<path d="M32.8333 28.2624V27.8939V18.5628C32.8333 16.3884 30.7466 14.5 28 14.5C25.2534 14.5 23.1667 16.3884 23.1667 18.5628V29.97C23.1667 31.5712 21.6668 32.7514 20 32.7514C18.3332 32.7514 16.8333 31.5712 16.8333 29.97V20.6389V20.2704L17.1854 20.1613C18.5785 19.7298 19.5 18.6326 19.5 17.4221C19.5 15.875 18.0132 14.5 16 14.5C13.9868 14.5 12.5 15.875 12.5 17.4221C12.5 18.6326 13.4215 19.7298 14.8146 20.1613L15.1667 20.2704V20.6389V29.97C15.1667 32.1445 17.2534 34.0328 20 34.0328C22.7466 34.0328 24.8333 32.1445 24.8333 29.97V18.5628C24.8333 16.9616 26.3332 15.7814 28 15.7814C29.6668 15.7814 31.1667 16.9616 31.1667 18.5628V27.8939V28.2648L30.8117 28.3724C30.0209 28.6121 29.3722 29.078 28.9667 29.6699C28.5632 30.259 28.4221 30.9394 28.5539 31.5955C28.6861 32.2539 29.0898 32.8693 29.7185 33.3227C30.3483 33.7769 31.1562 34.0327 32 34.0328L32.8333 28.2624ZM32.8333 28.2624L33.1854 28.3715M32.8333 28.2624L33.1854 28.3715M33.1854 28.3715C34.5785 28.803 35.5 29.9002 35.5 31.1107C35.5 32.6578 34.0133 34.0328 32.0001 34.0328L33.1854 28.3715ZM14.1667 17.4221C14.1667 18.396 15.0666 19.0628 16 19.0628C16.9334 19.0628 17.8333 18.396 17.8333 17.4221C17.8333 16.4483 16.9334 15.7814 16 15.7814C15.0666 15.7814 14.1667 16.4483 14.1667 17.4221ZM30.1667 31.1107C30.1667 32.0846 31.0665 32.7514 32 32.7514C32.9334 32.7514 33.8333 32.0846 33.8333 31.1107C33.8333 30.1368 32.9334 29.47 32 29.47C31.0666 29.47 30.1667 30.1368 30.1667 31.1107Z" fill="white" stroke="white"/>
</svg>
