<svg width="22" height="22" viewBox="0 0 22 22" fill="none" xmlns="http://www.w3.org/2000/svg">
<path fill-rule="evenodd" clip-rule="evenodd" d="M16.3233 14.9048C17.5703 13.2971 18.158 11.2748 17.9668 9.24925C17.7757 7.22367 16.82 5.34701 15.2943 4.00104C13.7685 2.65507 11.7873 1.9409 9.75375 2.00383C7.72015 2.06676 5.7869 2.90205 4.34731 4.33978C2.90647 5.77851 2.06844 7.7125 2.00401 9.74765C1.93958 11.7828 2.65359 13.7659 4.00054 15.2929C5.34749 16.8199 7.22601 17.7758 9.25329 17.9659C11.2806 18.1559 13.304 17.5658 14.9113 16.3158L14.9543 16.3608L19.1963 20.6038C19.2892 20.6967 19.3995 20.7704 19.5209 20.8207C19.6423 20.871 19.7724 20.8968 19.9038 20.8968C20.0352 20.8968 20.1653 20.871 20.2867 20.8207C20.4081 20.7704 20.5184 20.6967 20.6113 20.6038C20.7042 20.5109 20.7779 20.4006 20.8282 20.2792C20.8785 20.1578 20.9044 20.0277 20.9044 19.8963C20.9044 19.7649 20.8785 19.6348 20.8282 19.5134C20.7779 19.392 20.7042 19.2817 20.6113 19.1888L16.3683 14.9468C16.3537 14.9324 16.3387 14.9184 16.3233 14.9048ZM14.2473 5.75478C14.8119 6.31026 15.2609 6.97203 15.5685 7.70192C15.8761 8.43181 16.0361 9.21537 16.0393 10.0074C16.0425 10.7994 15.8889 11.5843 15.5873 12.3166C15.2857 13.049 14.8421 13.7144 14.282 14.2745C13.7219 14.8345 13.0565 15.2782 12.3242 15.5798C11.5918 15.8814 10.807 16.035 10.0149 16.0318C9.2229 16.0286 8.43933 15.8686 7.70945 15.561C6.97956 15.2534 6.31779 14.8044 5.76231 14.2398C4.65223 13.1115 4.03297 11.5902 4.03941 10.0074C4.04586 8.42458 4.67749 6.90843 5.79672 5.78919C6.91596 4.66996 8.43211 4.03833 10.0149 4.03188C11.5978 4.02544 13.119 4.6447 14.2473 5.75478Z" fill="#BDBDBD"/>
</svg>
