<svg width="40" height="40" viewBox="0 0 40 40" fill="none" xmlns="http://www.w3.org/2000/svg">
<path d="M0 20C0 8.95431 8.95431 0 20 0C31.0457 0 40 8.95431 40 20C40 31.0457 31.0457 40 20 40C8.95431 40 0 31.0457 0 20Z" fill="#5368F0"/>
<path d="M13 28.0002C14.6569 28.0002 16.0001 26.657 16.0001 25.0002C16.0001 23.3433 14.6569 22.0001 13 22.0001C11.3432 22.0001 10 23.3433 10 25.0002C10 26.657 11.3432 28.0002 13 28.0002Z" stroke="white" stroke-width="2" stroke-linecap="round" stroke-linejoin="round"/>
<path d="M27.0002 28.0002C28.657 28.0002 30.0002 26.657 30.0002 25.0002C30.0002 23.3433 28.657 22.0001 27.0002 22.0001C25.3433 22.0001 24.0001 23.3433 24.0001 25.0002C24.0001 26.657 25.3433 28.0002 27.0002 28.0002Z" stroke="white" stroke-width="2" stroke-linecap="round" stroke-linejoin="round"/>
<path d="M20 26.0002V22.0002L17 19.0002L22 15.0001L24.0001 18.0002H27.0001" stroke="white" stroke-width="2" stroke-linecap="round" stroke-linejoin="round"/>
<path d="M25.0001 13C25.5524 13 26.0001 12.5523 26.0001 12C26.0001 11.4477 25.5524 11 25.0001 11C24.4478 11 24.0001 11.4477 24.0001 12C24.0001 12.5523 24.4478 13 25.0001 13Z" stroke="white" stroke-width="2" stroke-linecap="round" stroke-linejoin="round"/>
</svg>
