<svg width="80" height="75" viewBox="0 0 80 75" fill="none" xmlns="http://www.w3.org/2000/svg">
<path fill-rule="evenodd" clip-rule="evenodd" d="M64.0953 0H16.5362V5.51743H0V31.3974C0 41.3994 11.1633 49.6301 22.1179 50.4863C25.7141 54.3394 32.0396 57.1383 37.6694 58.3317V65.096C32.2858 66.7496 22.6691 70.6348 22.1179 74.8679H59.0648C58.5083 70.6348 47.9122 66.7443 42.5179 65.096V58.3317C48.1691 57.1383 54.7782 54.3394 58.3798 50.4863C69.329 49.6301 80 41.3994 80 31.3974V5.51743H64.0953V0ZM5.0786 10.4194H16.1509V32.7139C16.1509 37.1129 17.2854 41.2977 19.2816 45.0652C10.9974 42.4269 5.0786 35.6305 5.0786 27.6781V10.4194ZM48.4474 37.6105L40.1846 33.0564L31.9112 37.6105L33.4899 27.9778L26.8005 21.1599L36.0425 19.7525L40.1846 10.9974L44.316 19.7525L53.5581 21.1599L46.8687 27.9778L48.4474 37.6105ZM60.7291 45.777C62.736 41.8383 63.8865 37.4821 63.8865 32.8744V10.5639H74.9856V27.6139C74.9856 35.9248 69.0401 43.0209 60.7291 45.777Z" fill="black"/>
</svg>
