<svg width="80" height="69" viewBox="0 0 80 69" fill="none" xmlns="http://www.w3.org/2000/svg">
<path d="M51.6667 13.3333C55.3333 13.3333 58.3333 10.3333 58.3333 6.66667C58.3333 3 55.3333 0 51.6667 0C48 0 45 3 45 6.66667C45 10.3333 48 13.3333 51.6667 13.3333ZM16.6667 35C7.33333 35 0 42.3333 0 51.6667C0 61 7.33333 68.3333 16.6667 68.3333C26 68.3333 33.3333 61 33.3333 51.6667C33.3333 42.3333 26 35 16.6667 35ZM16.6667 63.3333C10.3333 63.3333 5 58 5 51.6667C5 45.3333 10.3333 40 16.6667 40C23 40 28.3333 45.3333 28.3333 51.6667C28.3333 58 23 63.3333 16.6667 63.3333ZM36 30L44 22L46.6667 24.6667C51 29 56.6667 31.6667 63.6667 31.6667V25C58.6667 25 54.6667 23 51.6667 20L45.3333 13.6667C43.6667 12.3333 42 11.6667 40 11.6667C38 11.6667 36.3333 12.3333 35.3333 13.6667L21.0333 28L36.6667 41.6667V58.3333H43.3333V37.6667L36 30ZM63.3333 35C54 35 46.6667 42.3333 46.6667 51.6667C46.6667 61 54 68.3333 63.3333 68.3333C72.6667 68.3333 80 61 80 51.6667C80 42.3333 72.6667 35 63.3333 35ZM63.3333 63.3333C57 63.3333 51.6667 58 51.6667 51.6667C51.6667 45.3333 57 40 63.3333 40C69.6667 40 75 45.3333 75 51.6667C75 58 69.6667 63.3333 63.3333 63.3333Z" fill="black"/>
</svg>
