<svg width="80" height="78" viewBox="0 0 80 78" fill="none" xmlns="http://www.w3.org/2000/svg">
<path d="M63.1579 52.3368C66.508 52.3368 69.7209 53.6676 72.0898 56.0365C74.4587 58.4054 75.7895 61.6183 75.7895 64.9684C75.7895 68.3185 74.4587 71.5314 72.0898 73.9003C69.7209 76.2691 66.508 77.6 63.1579 77.6C60.5432 77.6075 57.991 76.8008 55.8557 75.2917C53.7203 73.7826 52.1079 71.6462 51.2421 69.1789H46.3158V60.7579H51.2421C52.9684 55.8315 57.6421 52.3368 63.1579 52.3368ZM63.1579 60.7579C62.0412 60.7579 60.9702 61.2015 60.1806 61.9911C59.391 62.7807 58.9474 63.8517 58.9474 64.9684C58.9474 66.0851 59.391 67.156 60.1806 67.9457C60.9702 68.7353 62.0412 69.1789 63.1579 69.1789C64.2746 69.1789 65.3456 68.7353 66.1352 67.9457C66.9248 67.156 67.3684 66.0851 67.3684 64.9684C67.3684 63.8517 66.9248 62.7807 66.1352 61.9911C65.3456 61.2015 64.2746 60.7579 63.1579 60.7579ZM63.1579 22.8631C64.7548 22.8631 66.2863 22.2288 67.4154 21.0996C68.5446 19.9705 69.179 18.439 69.179 16.8421C69.179 15.2452 68.5446 13.7137 67.4154 12.5846C66.2863 11.4554 64.7548 10.821 63.1579 10.821C61.561 10.821 60.0295 11.4554 58.9004 12.5846C57.7712 13.7137 57.1368 15.2452 57.1368 16.8421C57.1368 18.439 57.7712 19.9705 58.9004 21.0996C60.0295 22.2288 61.561 22.8631 63.1579 22.8631ZM63.1579 0C67.6247 0 71.9086 1.77443 75.0671 4.93294C78.2256 8.09144 80 12.3753 80 16.8421C80 29.4316 63.1579 48.1263 63.1579 48.1263C63.1579 48.1263 46.3158 29.4316 46.3158 16.8421C46.3158 12.3753 48.0902 8.09144 51.2487 4.93294C54.4072 1.77443 58.6911 0 63.1579 0ZM24.5474 60.7579H29.4737V69.1789H24.5474C23.6817 71.6462 22.0692 73.7826 19.9339 75.2917C17.7986 76.8008 15.2463 77.6075 12.6316 77.6C9.28152 77.6 6.06863 76.2691 3.69975 73.9003C1.33088 71.5314 5.26922e-05 68.3185 5.26922e-05 64.9684C5.26922e-05 59.4526 3.49479 54.7789 8.4211 53.0526V48.1263H16.8421V53.0526C20.4211 54.3158 23.2842 57.1789 24.5474 60.7579ZM12.6316 60.7579C11.5149 60.7579 10.444 61.2015 9.65433 61.9911C8.86471 62.7807 8.4211 63.8517 8.4211 64.9684C8.4211 66.0851 8.86471 67.156 9.65433 67.9457C10.444 68.7353 11.5149 69.1789 12.6316 69.1789C13.7483 69.1789 14.8193 68.7353 15.6089 67.9457C16.3985 67.156 16.8421 66.0851 16.8421 64.9684C16.8421 63.8517 16.3985 62.7807 15.6089 61.9911C14.8193 61.2015 13.7483 60.7579 12.6316 60.7579ZM12.6316 1.81053C15.9817 1.81053 19.1946 3.14135 21.5635 5.51023C23.9324 7.87911 25.2632 11.092 25.2632 14.4421C25.2632 19.9579 21.7685 24.6316 16.8421 26.3579V31.2842H8.4211V26.3579C5.95384 25.4921 3.81736 23.8797 2.30831 21.7443C0.799245 19.609 -0.0075103 17.0568 5.26922e-05 14.4421C5.26922e-05 11.092 1.33088 7.87911 3.69975 5.51023C6.06863 3.14135 9.28152 1.81053 12.6316 1.81053V1.81053ZM12.6316 10.2316C11.5149 10.2316 10.444 10.6752 9.65433 11.4648C8.86471 12.2544 8.4211 13.3254 8.4211 14.4421C8.4211 15.5588 8.86471 16.6298 9.65433 17.4194C10.444 18.209 11.5149 18.6526 12.6316 18.6526C13.7483 18.6526 14.8193 18.209 15.6089 17.4194C16.3985 16.6298 16.8421 15.5588 16.8421 14.4421C16.8421 13.3254 16.3985 12.2544 15.6089 11.4648C14.8193 10.6752 13.7483 10.2316 12.6316 10.2316ZM33.6842 69.1789V60.7579H42.1053V69.1789H33.6842ZM16.8421 43.9158H8.4211V35.4947H16.8421V43.9158Z" fill="black"/>
</svg>
