<svg width="14" height="12" viewBox="0 0 14 12" fill="none" xmlns="http://www.w3.org/2000/svg">
<path d="M1.13514 4.54054C0.507027 4.54054 0 5.04757 0 5.67568C0 6.30378 0.507027 6.81081 1.13514 6.81081C1.76324 6.81081 2.27027 6.30378 2.27027 5.67568C2.27027 5.04757 1.76324 4.54054 1.13514 4.54054ZM1.13514 0C0.507027 0 0 0.507027 0 1.13514C0 1.76324 0.507027 2.27027 1.13514 2.27027C1.76324 2.27027 2.27027 1.76324 2.27027 1.13514C2.27027 0.507027 1.76324 0 1.13514 0ZM1.13514 9.08108C0.507027 9.08108 0 9.59568 0 10.2162C0 10.8368 0.514595 11.3514 1.13514 11.3514C1.75568 11.3514 2.27027 10.8368 2.27027 10.2162C2.27027 9.59568 1.76324 9.08108 1.13514 9.08108ZM3.40541 10.973H14V9.45946H3.40541V10.973ZM3.40541 6.43243H14V4.91892H3.40541V6.43243ZM3.40541 0.378378V1.89189H14V0.378378H3.40541Z" fill="white"/>
</svg>
